<svg width="43" height="43" viewBox="0 0 43 43" fill="none" xmlns="http://www.w3.org/2000/svg">
<path d="M39.9989 16.6529H38.4683C38.1001 15.3544 37.5834 14.1022 36.9288 12.9256L38.0076 11.8459C38.3847 11.4688 38.5928 10.9663 38.5928 10.4309C38.5928 9.89549 38.3847 9.39299 38.0076 9.0159L33.9832 4.9915C33.6061 4.6144 33.1036 4.40629 32.5682 4.40629C32.0328 4.40629 31.5312 4.6144 31.1532 4.9915L30.0735 6.0703C28.8978 5.41662 27.6447 4.899 26.3462 4.5308V3.00108C26.3462 1.89738 25.4488 1 24.3451 1H18.6531C17.5494 1 16.652 1.89738 16.652 3.00108V4.53169C15.3536 4.89989 14.1013 5.41662 12.9247 6.07119L11.845 4.99239C11.4679 4.61529 10.9654 4.40718 10.43 4.40718C9.8946 4.40718 9.39211 4.61529 9.01501 4.99239L4.99061 9.01679C4.61351 9.39388 4.4054 9.89638 4.4054 10.4318C4.4054 10.9672 4.61351 11.4697 4.99061 11.8468L6.06941 12.9265C5.41573 14.1022 4.89811 15.3553 4.52991 16.6538H3.00108C1.89738 16.6538 1 17.5512 1 18.6549V24.3469C1 25.4506 1.89738 26.348 3.00108 26.348H4.53169C4.89989 27.6464 5.41662 28.8987 6.07119 30.0753L4.99239 31.155C4.61529 31.5321 4.40718 32.0346 4.40718 32.57C4.40718 33.1054 4.61529 33.6079 4.99239 33.985L9.01679 38.0094C9.39388 38.3865 9.89638 38.5946 10.4318 38.5946C10.9663 38.5946 11.4688 38.3865 11.8468 38.0094L12.9265 36.9306C14.1022 37.5843 15.3553 38.1019 16.6538 38.4701V40.0007C16.6538 41.1044 17.5512 42.0018 18.6549 42.0018H24.3469C25.4506 42.0018 26.348 41.1044 26.348 40.0007V38.4701C27.6464 38.1019 28.8987 37.5852 30.0753 36.9306L31.155 38.0094C31.5321 38.3865 32.0346 38.5946 32.57 38.5946C33.1054 38.5946 33.6079 38.3865 33.985 38.0094L38.0094 33.985C38.3865 33.6079 38.5946 33.1054 38.5946 32.57C38.5946 32.0346 38.3865 31.5321 38.0094 31.155L36.9306 30.0753C37.5843 28.8996 38.1019 27.6464 38.4701 26.348H40.0007C41.1044 26.348 42.0018 25.4506 42.0018 24.3469V18.6549C42.0018 17.5512 41.1044 16.6538 40.0007 16.6538L39.9989 16.6529ZM37.5772 25.1909L37.466 25.6258C37.0836 27.1217 36.493 28.5518 35.7104 29.8761L35.4827 30.2621L37.1903 31.9715C37.5194 32.3005 37.5194 32.8368 37.1903 33.1659L33.1659 37.1903C32.8368 37.5194 32.3005 37.5194 31.9706 37.1903L30.2612 35.4827L29.8752 35.7104C28.5509 36.4921 27.1208 37.0827 25.6249 37.466L25.19 37.5772V39.9989C25.19 40.4649 24.8111 40.8438 24.3451 40.8438H18.6531C18.1871 40.8438 17.8082 40.4649 17.8082 39.9989V37.5772L17.3733 37.466C15.8774 37.0836 14.4473 36.493 13.123 35.7104L12.737 35.4827L11.0277 37.1903C10.6986 37.5194 10.1623 37.5194 9.83323 37.1903L5.80883 33.1659C5.47976 32.8368 5.47976 32.3005 5.80883 31.9715L7.51642 30.2621L7.28874 29.8761C6.50699 28.5518 5.91644 27.1217 5.53312 25.6258L5.42195 25.1909H3.00108C2.53505 25.1909 2.15618 24.812 2.15618 24.346V18.654C2.15618 18.188 2.53505 17.8091 3.00108 17.8091H5.42284L5.53401 17.3742C5.91644 15.8783 6.50698 14.4482 7.28963 13.1239L7.51731 12.7379L5.80972 11.0285C5.48065 10.6995 5.48065 10.1632 5.80972 9.83412L9.83412 5.80972C10.1641 5.48065 10.6995 5.48065 11.0294 5.80972L12.7388 7.51731L13.1248 7.28963C14.4491 6.50787 15.8792 5.91733 17.3751 5.53401L17.81 5.42284V3.00108C17.81 2.53505 18.1889 2.15618 18.6549 2.15618H24.3469C24.8129 2.15618 25.1918 2.53505 25.1918 3.00108V5.42284L25.6267 5.53401C27.1226 5.91644 28.5527 6.50698 29.877 7.28963L30.263 7.51731L31.9723 5.80972C32.3014 5.48065 32.8377 5.48065 33.1668 5.80972L37.1912 9.83412C37.5202 10.1632 37.5202 10.6995 37.1912 11.0285L35.4836 12.7379L35.7113 13.1239C36.493 14.4482 37.0836 15.8783 37.4669 17.3742L37.578 17.8091H39.9998C40.4658 17.8091 40.8447 18.188 40.8447 18.654V24.346C40.8447 24.812 40.4658 25.1909 39.9998 25.1909H37.5772Z" fill="#2276FF" stroke="#2276FF" stroke-width="0.5"/>
<path d="M16.2616 23.9653H12.2559V27.9711H13.4886V26.1034C15.1366 28.9672 18.188 30.7326 21.492 30.7361C26.597 30.7406 30.7397 26.6059 30.7442 21.5H29.5115C29.5124 24.4901 27.8484 27.2329 25.1945 28.6114C21.2688 30.6516 16.4315 29.1237 14.3913 25.1971H16.2616V23.9644V23.9653Z" fill="#2276FF" stroke="#2276FF" stroke-width="0.5"/>
<path d="M26.7384 19.0347H30.7442V15.029H29.5115V16.8967C27.8635 14.0329 24.8121 12.2675 21.508 12.2639C16.4031 12.2595 12.2604 16.3942 12.2559 21.5H13.4886C13.4877 18.51 15.1517 15.7672 17.8056 14.3886C21.7313 12.3484 26.5686 13.8763 28.6088 17.8029H26.7384V19.0356V19.0347Z" fill="#2276FF" stroke="#2276FF" stroke-width="0.5"/>
</svg>
