<svg width="40" height="40" viewBox="0 0 40 40" fill="none" xmlns="http://www.w3.org/2000/svg">
<g clip-path="url(#clip0_294_1804)">
<path d="M6.57976 9.87021C6.75426 9.87017 6.9216 9.80082 7.04498 9.67741L9.67701 7.04537C9.92638 6.78718 9.92281 6.37678 9.669 6.12296C9.41518 5.86915 9.00478 5.86558 8.74659 6.11495L6.11455 8.74698C5.92642 8.93517 5.87015 9.21814 5.97197 9.46399C6.0738 9.70983 6.31367 9.87015 6.57976 9.87021Z" fill="#2276FF"/>
<path d="M6.11453 13.6255C6.37148 13.8823 6.788 13.8823 7.04496 13.6255L13.625 7.04537C13.8744 6.78718 13.8708 6.37678 13.617 6.12296C13.3632 5.86915 12.9528 5.86558 12.6946 6.11495L6.11453 12.695C5.85766 12.952 5.85766 13.3685 6.11453 13.6255Z" fill="#2276FF"/>
<path d="M33.9941 26.943C36.5974 24.6981 37.5302 21.071 36.3327 17.8488C35.1353 14.6265 32.0603 12.4888 28.6228 12.4888C25.1852 12.4888 22.1102 14.6265 20.9128 17.8488C19.7154 21.071 20.6481 24.6981 23.2514 26.943C19.9767 28.1465 17.791 31.2541 17.7656 34.743V38.8227C17.7656 39.1861 18.0602 39.4807 18.4236 39.4807H38.8219C39.1853 39.4807 39.4799 39.1861 39.4799 38.8227V34.743C39.4545 31.2541 37.2689 28.1465 33.9941 26.943ZM21.7137 20.7274C21.7137 16.9116 24.807 13.8183 28.6228 13.8183C32.4386 13.8183 35.5319 16.9116 35.5319 20.7274C35.5319 24.5432 32.4386 27.6365 28.6228 27.6365C24.8088 27.6321 21.718 24.5414 21.7137 20.7274ZM38.1639 38.1646H34.2159V36.8486C34.2159 36.4852 33.9213 36.1906 33.5578 36.1906C33.1944 36.1906 32.8998 36.4852 32.8998 36.8486V38.1646H24.3457V36.8486C24.3457 36.4852 24.0511 36.1906 23.6877 36.1906C23.3243 36.1906 23.0297 36.4852 23.0297 36.8486V38.1646H19.0816V34.743C19.1249 31.462 21.403 28.6346 24.5997 27.8944C27.0962 29.3053 30.1493 29.3053 32.6458 27.8944C35.8426 28.6346 38.1206 31.462 38.1639 34.743V38.1646Z" fill="#2276FF"/>
<path d="M37.5065 0H26.9784C25.8881 0 25.0043 0.883802 25.0043 1.97403V3.29005H5.26407C4.17385 3.29005 3.29005 4.17385 3.29005 5.26407V22.1617L0.123048 26.5961C0.0504854 26.7111 0.00816008 26.8426 0 26.9784V28.9524C0 30.406 1.1784 31.5844 2.63204 31.5844H16.5358C16.8992 31.5844 17.1938 31.2898 17.1938 30.9264C17.1938 30.563 16.8992 30.2684 16.5358 30.2684H2.63204C1.90522 30.2684 1.31602 29.6792 1.31602 28.9524V27.6364H10.9137L12.037 28.7596C12.1603 28.883 12.3277 28.9524 12.5022 28.9524H18.0952C18.4587 28.9524 18.7533 28.6578 18.7533 28.2944C18.7533 27.931 18.4587 27.6364 18.0952 27.6364H12.7746L11.9396 26.8007L12.3186 25.6624H19.3652C19.7286 25.6624 20.0232 25.3678 20.0232 25.0043C20.0232 24.6409 19.7286 24.3463 19.3652 24.3463H11.8442C11.5611 24.3466 11.3098 24.5278 11.2204 24.7964L10.7124 26.3204H1.93652L4.28627 23.0303H18.4243C18.7877 23.0303 19.0823 22.7357 19.0823 22.3723C19.0823 22.0089 18.7877 21.7143 18.4243 21.7143H15.1342V20.0693C15.1342 19.7059 14.8396 19.4113 14.4762 19.4113C14.1128 19.4113 13.8182 19.7059 13.8182 20.0693V21.7143H12.5022V20.0232C12.4905 18.5615 13.438 17.2649 14.8342 16.8319C16.93 18.0315 19.5957 17.4207 20.9601 15.4283C22.3245 13.4358 21.9303 10.7296 20.0541 9.20925C18.178 7.68888 15.4488 7.86401 13.7824 9.6117C12.1159 11.3594 12.0708 14.0938 13.6787 15.8955C12.1405 16.6961 11.1785 18.2891 11.1862 20.0232V21.7143H4.60606V5.26407C4.60606 4.90066 4.90066 4.60606 5.26407 4.60606H25.0043V6.38269L23.1619 9.14238C22.8937 9.54652 22.8695 10.0654 23.099 10.4928C23.3285 10.9201 23.7744 11.1866 24.2595 11.1862H37.5065C38.5967 11.1862 39.4805 10.3024 39.4805 9.21213V1.97403C39.4805 0.883802 38.5967 0 37.5065 0ZM17.1082 9.54113C18.9253 9.54113 20.3983 11.0141 20.3983 12.8312C20.3983 14.6482 18.9253 16.1212 17.1082 16.1212C15.2912 16.1212 13.8182 14.6482 13.8182 12.8312C13.8204 11.015 15.2921 9.54331 17.1082 9.54113ZM38.1645 9.21213C38.1645 9.57554 37.8699 9.87014 37.5065 9.87014H24.2595L26.2098 6.94529C26.2817 6.83704 26.3202 6.71003 26.3204 6.58009V1.97403C26.3204 1.61062 26.615 1.31602 26.9784 1.31602H37.5065C37.8699 1.31602 38.1645 1.61062 38.1645 1.97403V9.21213Z" fill="#2276FF"/>
<path d="M35.533 3.2901H28.9529C28.5895 3.2901 28.2949 3.5847 28.2949 3.94811C28.2949 4.31152 28.5895 4.60612 28.9529 4.60612H35.533C35.8964 4.60612 36.191 4.31152 36.191 3.94811C36.191 3.5847 35.8964 3.2901 35.533 3.2901Z" fill="#2276FF"/>
<path d="M35.533 6.58014H28.9529C28.5895 6.58014 28.2949 6.87474 28.2949 7.23815C28.2949 7.60156 28.5895 7.89616 28.9529 7.89616H35.533C35.8964 7.89616 36.191 7.60156 36.191 7.23815C36.191 6.87474 35.8964 6.58014 35.533 6.58014Z" fill="#2276FF"/>
</g>
<defs>
<clipPath id="clip0_294_1804">
<rect width="39.4805" height="39.4805" fill="white"/>
</clipPath>
</defs>
</svg>
