<svg width="39" height="40" viewBox="0 0 39 40" fill="none" xmlns="http://www.w3.org/2000/svg">
<path d="M12.2215 24.232C12.3821 24.2991 12.5628 24.2995 12.7238 24.2333C12.8847 24.1671 13.0129 24.0396 13.0799 23.879L14.0052 21.6575H17.5059L18.4313 23.879C18.5708 24.2135 18.9552 24.3716 19.2897 24.2321C19.6242 24.0926 19.7823 23.7082 19.6428 23.3737L16.3614 15.4982C16.2594 15.2538 16.0205 15.0945 15.7556 15.0945C15.4908 15.0945 15.2518 15.2538 15.1499 15.4982L11.8685 23.3737C11.8014 23.5343 11.801 23.715 11.8672 23.876C11.9334 24.037 12.0608 24.165 12.2215 24.232ZM15.7556 17.4572L16.9586 20.3449H14.5526L15.7556 17.4572Z" fill="#2276FF"/>
<path fill-rule="evenodd" clip-rule="evenodd" d="M21.0059 22.97C20.6434 22.97 20.3496 23.2639 20.3496 23.6263C20.3496 23.9888 20.6434 24.2826 21.0059 24.2826H24.9436C25.3061 24.2826 25.5999 23.9888 25.5999 23.6263C25.5999 23.2639 25.3061 22.97 24.9436 22.97H23.631V16.4072H24.9436C25.3061 16.4072 25.5999 16.1134 25.5999 15.7509C25.5999 15.3884 25.3061 15.0946 24.9436 15.0946H21.0059C20.6434 15.0946 20.3496 15.3884 20.3496 15.7509C20.3496 16.1134 20.6434 16.4072 21.0059 16.4072H22.3185V22.97H21.0059Z" fill="#2276FF"/>
<path d="M0.00473849 28.8766C0.00473849 30.3264 1.18008 31.5017 2.62986 31.5017C2.95869 31.5005 3.28429 31.4368 3.58935 31.314C5.1408 32.5019 7.3302 33.1214 10.0209 33.1214C10.4265 33.1214 10.8479 33.1024 11.2751 33.0749C13.1809 36.9692 15.9308 39.3771 19.037 39.3771C22.1432 39.3771 24.893 36.9692 26.7995 33.0768C27.2274 33.1044 27.6481 33.1234 28.0537 33.1234C30.7444 33.1234 32.9338 32.5038 34.4853 31.3159C34.7903 31.438 35.1156 31.501 35.4441 31.5017C36.6028 31.4984 37.6223 30.7359 37.9527 29.6252C38.2832 28.5147 37.8465 27.3188 36.8781 26.6826C36.9699 24.5693 36.1529 22.1712 34.4899 19.6885C36.1529 17.2065 36.97 14.8084 36.8781 12.6945C38.0127 11.9623 38.4046 10.4875 37.7834 9.2886C37.1621 8.08969 35.7311 7.5596 34.4787 8.06437C32.6955 6.69997 30.0625 6.09554 26.8001 6.30817C24.8957 2.41056 22.1446 0 19.037 0C15.9295 0 13.1784 2.41056 11.2719 6.30823C8.01078 6.0969 5.37907 6.70197 3.59329 8.06443C2.34166 7.56373 0.914358 8.0946 0.294101 9.29151C-0.326155 10.4884 0.0631278 11.9607 1.1939 12.6946C1.10335 14.8072 1.92106 17.2052 3.58412 19.6886C1.92106 22.1713 1.10335 24.5694 1.1959 26.6827C0.453638 27.1657 0.00557816 27.991 0.00473849 28.8766ZM1.31733 28.8766C1.31733 28.1517 1.90497 27.564 2.62993 27.564C3.35489 27.564 3.94252 28.1516 3.94252 28.8766C3.94252 29.6015 3.35489 30.1892 2.62993 30.1892C2.28179 30.1892 1.94792 30.0509 1.70177 29.8047C1.45562 29.5586 1.31733 29.2247 1.31733 28.8766ZM12.0863 7.69168C13.8335 7.90089 15.5548 8.28727 17.2238 8.84481C16.0491 9.36908 14.9019 9.95304 13.7868 10.5945C12.6678 11.2403 11.5838 11.9451 10.5395 12.7057C10.8835 10.9862 11.4019 9.30617 12.0863 7.69168ZM27.534 12.7057C26.4899 11.945 25.4062 11.2402 24.2873 10.5945C23.1738 9.95381 22.0287 9.36986 20.8562 8.84481C22.5235 8.28753 24.243 7.90121 25.9884 7.69168C26.6725 9.30624 27.1903 10.9862 27.534 12.7057ZM25.9878 31.6855C24.2406 31.4763 22.5193 31.0899 20.8503 30.5324C22.025 30.0081 23.1722 29.4242 24.2873 28.7827C25.4063 28.1369 26.4903 27.4322 27.5346 26.6715C27.1905 28.391 26.6723 30.071 25.9878 31.6855ZM23.6311 11.7318C25.1111 12.5835 26.5259 13.5437 27.8641 14.6043C28.1055 16.2883 28.2261 17.9874 28.225 19.6886C28.2263 21.3898 28.1059 23.0889 27.8647 24.7729C26.5263 25.8335 25.1112 26.7937 23.6311 27.6454C22.1556 28.4988 20.6203 29.2441 19.037 29.8755C17.4538 29.2438 15.9184 28.498 14.443 27.6441C12.963 26.7923 11.5482 25.8322 10.21 24.7715C9.72958 21.399 9.72958 17.9755 10.21 14.603C11.5482 13.5428 12.9631 12.5831 14.443 11.7317C15.9197 10.8777 17.4564 10.132 19.041 9.50033C20.6229 10.1323 22.157 10.878 23.6311 11.7318ZM29.3407 15.8447C30.6497 17.0035 31.8386 18.2913 32.8893 19.6886C31.8401 21.0856 30.6527 22.3734 29.3454 23.5325C29.4743 22.2553 29.5385 20.9723 29.5377 19.6886C29.5381 18.4049 29.4734 17.1219 29.3441 15.8447H29.3407ZM8.73335 23.5325C7.42405 22.374 6.23514 21.0861 5.18478 19.6886C6.23404 18.2916 7.42134 17.0038 8.7287 15.8447C8.47053 18.4008 8.47053 20.9764 8.7287 23.5325H8.73335ZM13.7907 28.7827C14.9041 29.4234 16.0493 30.0074 17.2218 30.5324C15.5545 31.0897 13.835 31.476 12.0896 31.6855C11.4053 30.071 10.8872 28.391 10.5434 26.6715C11.5863 27.4322 12.669 28.1369 13.7867 28.7827H13.7907ZM19.037 38.0646C16.572 38.0646 14.3321 36.1095 12.6802 32.9384C14.8553 32.63 16.9881 32.0742 19.037 31.2819C21.0868 32.0746 23.2205 32.6303 25.3964 32.9384C23.7413 36.1095 21.5021 38.0646 19.037 38.0646ZM35.4442 30.1892C34.7193 30.1892 34.1316 29.6015 34.1316 28.8766C34.1316 28.1516 34.7193 27.564 35.4442 27.564C36.1692 27.564 36.7568 28.1516 36.7568 28.8766C36.7568 29.6015 36.1691 30.1892 35.4442 30.1892ZM35.582 26.2652C35.5354 26.2652 35.4915 26.2515 35.4442 26.2515C33.9943 26.2515 32.819 27.4268 32.819 28.8766C32.8215 29.4634 33.0225 30.0322 33.3894 30.4904C31.96 31.4334 29.8736 31.8817 27.3745 31.7878C28.1882 29.7551 28.7649 27.6352 29.0933 25.4704C30.7908 24.1036 32.327 22.5477 33.6722 20.8331C34.7803 22.4419 35.4396 24.317 35.582 26.2652ZM36.7568 10.5006C36.7568 11.2255 36.1691 11.8132 35.4442 11.8132C34.7192 11.8132 34.1316 11.2255 34.1316 10.5006C34.1316 9.77561 34.7192 9.18797 35.4442 9.18797C36.1691 9.18797 36.7568 9.77568 36.7568 10.5006ZM33.3894 8.88679C33.0226 9.34493 32.8216 9.9137 32.819 10.5006C32.819 11.9504 33.9944 13.1257 35.4442 13.1257C35.4915 13.1257 35.5354 13.1145 35.582 13.1119C35.4397 15.0602 34.7805 16.9353 33.6722 18.544C32.3267 16.8293 30.7903 15.2735 29.0927 13.9067C28.7638 11.7418 28.1864 9.62195 27.3719 7.58931C29.873 7.49481 31.9606 7.94107 33.3894 8.88679ZM19.037 1.3126C21.5021 1.3126 23.742 3.26767 25.3939 6.43883C23.2199 6.74745 21.0882 7.30318 19.0403 8.09531C16.9906 7.30259 14.8569 6.74686 12.681 6.43883C14.3328 3.26767 16.572 1.3126 19.037 1.3126ZM2.62986 9.18804C3.35476 9.18804 3.94246 9.77568 3.94246 10.5006C3.94246 11.2256 3.35482 11.8132 2.62986 11.8132C1.90491 11.8132 1.31727 11.2256 1.31727 10.5006C1.31727 9.77568 1.90497 9.18804 2.62986 9.18804ZM2.49209 13.1119C2.53866 13.1119 2.58265 13.1257 2.62993 13.1257C4.07978 13.1257 5.25506 11.9504 5.25506 10.5006C5.2526 9.9137 5.0516 9.34486 4.68473 8.88679C6.11346 7.94371 8.19977 7.49611 10.6996 7.58931C9.88595 9.62208 9.30917 11.7419 8.98079 13.9067C7.2835 15.2735 5.74729 16.8291 4.40189 18.5434C3.2934 16.935 2.63413 15.0601 2.49209 13.1119ZM4.40189 20.8338C5.74794 22.5479 7.28453 24.1035 8.98208 25.4704C9.31085 27.6355 9.88802 29.7556 10.7022 31.7885C8.20442 31.883 6.11675 31.4334 4.68738 30.4904C5.05328 30.0319 5.25331 29.4631 5.25506 28.8766C5.25506 27.4267 4.07971 26.2515 2.62993 26.2515C2.58265 26.2515 2.53873 26.2633 2.49209 26.2652C2.63439 24.3171 3.29359 22.4423 4.40189 20.8338Z" fill="#2276FF"/>
</svg>
