<svg width="40" height="40" viewBox="0 0 40 40" fill="none" xmlns="http://www.w3.org/2000/svg">
<g clip-path="url(#clip0_294_1793)">
<path d="M38.4435 23.2145L32.7452 20.1448C32.6823 19.908 32.6014 19.6764 32.503 19.452C32.1163 18.5409 31.4326 17.7876 30.5632 17.3147C30.3295 17.1932 30.083 17.098 29.8282 17.0311C30.0993 16.4702 30.2422 15.8559 30.2464 15.2329C30.2506 14.6099 30.1161 13.9938 29.8526 13.4292C29.6347 12.9312 29.3298 12.476 28.9524 12.0849V5.86934C28.9529 5.51304 28.8567 5.16329 28.6741 4.85737C28.4915 4.55144 28.2292 4.30081 27.9154 4.13219L20.6773 0.237435C20.3895 0.0806708 20.067 -0.00146484 19.7393 -0.00146484C19.4116 -0.00146484 19.0891 0.0806708 18.8013 0.237435L11.5632 4.13219C11.2498 4.30118 10.988 4.55195 10.8058 4.85783C10.6235 5.16372 10.5276 5.51327 10.5281 5.86934V12.0849C10.1507 12.4762 9.84571 12.9313 9.62734 13.4292C9.36415 13.9937 9.22979 14.6097 9.234 15.2326C9.23822 15.8554 9.38089 16.4696 9.65168 17.0305C9.39713 17.0977 9.15084 17.1931 8.91734 17.3147C8.04694 17.7872 7.36225 18.5405 6.9749 19.452C6.87657 19.6764 6.79561 19.908 6.73275 20.1448L1.03439 23.2138C0.721015 23.3829 0.459339 23.6338 0.277197 23.9398C0.0950564 24.2458 -0.000737679 24.5955 4.27748e-06 24.9516V33.611C-0.000505464 33.9673 0.0956809 34.317 0.278309 34.623C0.460938 34.9289 0.723162 35.1795 1.03703 35.3481L8.27513 39.2429C8.56299 39.3994 8.88545 39.4814 9.21312 39.4814C9.54079 39.4814 9.86325 39.3994 10.1511 39.2429L17.3892 35.3481C17.675 35.192 17.9174 34.967 18.0943 34.6935C18.2713 34.4201 18.3772 34.1068 18.4025 33.7821C18.9216 33.5409 19.379 33.185 19.7403 32.7411C20.102 33.1855 20.5602 33.5417 21.08 33.7827C21.1053 34.1074 21.2112 34.4206 21.3881 34.694C21.5651 34.9673 21.8075 35.1922 22.0933 35.3481L29.3314 39.2429C29.6193 39.3994 29.9417 39.4814 30.2694 39.4814C30.5971 39.4814 30.9195 39.3994 31.2074 39.2429L38.4455 35.3481C38.7589 35.1791 39.0207 34.9284 39.2029 34.6225C39.3852 34.3166 39.4811 33.9671 39.4806 33.611V24.9516C39.4811 24.5953 39.3849 24.2456 39.2022 23.9396C39.0196 23.6337 38.7574 23.3831 38.4435 23.2145ZM32.7689 22.3261C32.8203 22.1235 32.8555 21.9171 32.8741 21.7089L37.4407 24.1679L30.2684 28.0265L23.0961 24.1679L26.5777 22.2919C26.8716 22.953 27.3418 23.5206 27.9367 23.9323C28.5316 24.3441 29.2283 24.5843 29.9506 24.6265C30.1162 24.6242 30.2813 24.6077 30.4441 24.5772L30.7442 25.2582C30.7953 25.3754 30.8795 25.4752 30.9864 25.5453C31.0933 25.6154 31.2184 25.6528 31.3462 25.653C31.4369 25.653 31.5266 25.634 31.6094 25.5971C31.6886 25.5623 31.76 25.5123 31.8198 25.4499C31.8796 25.3875 31.9265 25.3139 31.9579 25.2334C31.9892 25.1529 32.0044 25.0669 32.0025 24.9805C32.0007 24.8941 31.9818 24.809 31.947 24.7298L31.6502 24.056C32.2068 23.6214 32.6008 23.012 32.7689 22.3261ZM19.7403 29.1115C19.3839 28.6744 18.9343 28.3225 18.4243 28.0817V24.9516C18.4248 24.5953 18.3286 24.2456 18.146 23.9396C17.9633 23.6337 17.7011 23.3831 17.3872 23.2145L13.3115 21.0187C13.4784 20.1609 13.3574 19.272 12.9674 18.49C13.4775 18.3517 13.9525 18.1068 14.3611 17.7714L18.8013 20.1606C19.0892 20.3169 19.4117 20.3988 19.7393 20.3988C20.0669 20.3988 20.3893 20.3169 20.6773 20.1606L25.1195 17.7701C25.5279 18.1059 26.0029 18.3513 26.5132 18.49C26.1235 19.2721 26.0025 20.1609 26.169 21.0187L22.0933 23.2138C21.7794 23.3826 21.5172 23.6333 21.3346 23.9394C21.152 24.2454 21.0558 24.5952 21.0563 24.9516V28.0817C20.5463 28.3225 20.0966 28.6744 19.7403 29.1115ZM10.8321 13.9596C11.0047 13.4958 11.3015 13.0885 11.6901 12.7821C12.0786 12.4757 12.544 12.2821 13.0352 12.2224L12.8318 12.683C12.7971 12.7621 12.7782 12.8473 12.7763 12.9337C12.7745 13.0201 12.7896 13.106 12.821 13.1866C12.8523 13.2671 12.8992 13.3407 12.959 13.4031C13.0188 13.4655 13.0903 13.5155 13.1694 13.5503C13.2523 13.5871 13.3419 13.6061 13.4326 13.6062C13.5606 13.6061 13.6858 13.5688 13.7928 13.4986C13.8999 13.4285 13.9841 13.3287 14.0353 13.2114L14.2327 12.7567C14.5207 13.1578 14.6927 13.6305 14.7297 14.1229C14.7667 14.6153 14.6674 15.1083 14.4426 15.548C14.27 16.0104 13.9734 16.4165 13.5854 16.7217C13.1975 17.0269 12.733 17.2196 12.2429 17.2786L12.4403 16.8245C12.4794 16.7448 12.5018 16.6579 12.5064 16.5692C12.511 16.4806 12.4976 16.3919 12.467 16.3085C12.4364 16.2252 12.3892 16.1489 12.3283 16.0842C12.2674 16.0196 12.1941 15.9679 12.1127 15.9324C12.0314 15.8968 11.9436 15.8781 11.8548 15.8773C11.766 15.8766 11.678 15.8938 11.596 15.928C11.5141 15.9622 11.4399 16.0126 11.3779 16.0762C11.316 16.1398 11.2675 16.2153 11.2355 16.2981L11.0381 16.7521C10.7505 16.3505 10.5791 15.8774 10.5428 15.3848C10.5064 14.8921 10.6066 14.399 10.8321 13.9596ZM25.2425 12.7587L25.44 13.2134C25.4911 13.3307 25.5754 13.4305 25.6825 13.5006C25.7895 13.5707 25.9147 13.6081 26.0427 13.6082C26.1334 13.6081 26.223 13.589 26.3059 13.5523C26.385 13.5175 26.4565 13.4675 26.5163 13.4051C26.5761 13.3426 26.623 13.2691 26.6543 13.1885C26.6857 13.108 26.7008 13.0221 26.699 12.9357C26.6971 12.8493 26.6782 12.7641 26.6435 12.685L26.4461 12.231C26.9363 12.2896 27.4009 12.4821 27.7889 12.7874C28.177 13.0926 28.4734 13.4989 28.6458 13.9615C28.8705 14.4012 28.9699 14.8943 28.9328 15.3866C28.8958 15.879 28.7239 16.3517 28.4359 16.7528L28.2385 16.2988C28.2065 16.216 28.158 16.1405 28.096 16.0768C28.0341 16.0132 27.9599 15.9628 27.8779 15.9287C27.796 15.8945 27.7079 15.8772 27.6191 15.878C27.5303 15.8787 27.4426 15.8975 27.3612 15.933C27.2799 15.9686 27.2065 16.0202 27.1457 16.0849C27.0848 16.1495 27.0376 16.2258 27.007 16.3092C26.9764 16.3925 26.963 16.4812 26.9676 16.5699C26.9721 16.6586 26.9946 16.7454 27.0337 16.8252L27.2311 17.2792C26.7408 17.2207 26.2762 17.0282 25.8881 16.7229C25.5001 16.4176 25.2036 16.0113 25.0313 15.5486C24.8073 15.1089 24.7087 14.6159 24.7463 14.1237C24.7839 13.6316 24.9563 13.1593 25.2445 12.7587H25.2425ZM31.2962 19.9823C31.5864 20.6094 31.6559 21.3163 31.4936 21.9879C31.4198 22.2786 31.2808 22.5486 31.087 22.7775L30.8896 22.3215C30.8171 22.1652 30.6862 22.0435 30.525 21.9826C30.3637 21.9218 30.1851 21.9266 30.0274 21.996C29.8696 22.0655 29.7455 22.1941 29.6815 22.3541C29.6176 22.5141 29.619 22.6929 29.6854 22.8519L29.8828 23.3066C29.3925 23.248 28.9277 23.0555 28.5397 22.7501C28.1516 22.4447 27.8552 22.0382 27.6831 21.5754C27.4581 21.1358 27.3586 20.6427 27.3955 20.1503C27.4324 19.6579 27.6043 19.1852 27.8924 18.7841L28.0898 19.2381C28.1212 19.3217 28.1693 19.3981 28.2312 19.4625C28.2931 19.5269 28.3674 19.5781 28.4497 19.6128C28.532 19.6476 28.6205 19.6652 28.7098 19.6647C28.7992 19.6641 28.8874 19.6454 28.9693 19.6096C29.0511 19.5738 29.1248 19.5217 29.1859 19.4565C29.247 19.3913 29.2942 19.3144 29.3245 19.2304C29.3549 19.1464 29.3678 19.0571 29.3626 18.9679C29.3573 18.8787 29.334 18.7916 29.2939 18.7117L29.0965 18.255C29.3955 18.267 29.6879 18.3464 29.9519 18.4873C30.5565 18.8197 31.0311 19.3465 31.2989 19.9823H31.2962ZM25.8854 10.9492L25.588 10.274C25.5543 10.1933 25.5048 10.1202 25.4425 10.0588C25.3801 9.99743 25.3062 9.94911 25.225 9.91666C25.1437 9.88421 25.0569 9.86827 24.9694 9.8698C24.882 9.87132 24.7957 9.89026 24.7156 9.92552C24.6356 9.96077 24.5634 10.0116 24.5032 10.0751C24.443 10.1386 24.3961 10.2135 24.3652 10.2953C24.3344 10.3771 24.3201 10.4643 24.3233 10.5517C24.3265 10.6391 24.3471 10.725 24.3838 10.8044L24.6813 11.4795C23.4561 12.4198 23.0619 14.3353 23.8305 16.0803C23.9378 16.319 24.0653 16.5482 24.2114 16.7653L20.3983 18.819V10.0845L27.6364 6.18913V11.1722C27.0865 10.9305 26.4784 10.8531 25.8854 10.9492ZM19.429 1.39421C19.525 1.3425 19.6323 1.31542 19.7413 1.31542C19.8503 1.31542 19.9575 1.3425 20.0535 1.39421L26.9126 5.08565L19.7403 8.94421L12.568 5.08565L19.429 1.39421ZM11.8442 6.18913L19.0823 10.0845V18.819L15.2658 16.7673C15.412 16.5501 15.5394 16.321 15.6468 16.0823C16.4154 14.3373 16.0212 12.4218 14.796 11.4815L15.0934 10.8064C15.1599 10.6474 15.1612 10.4686 15.0973 10.3086C15.0334 10.1486 14.9092 10.02 14.7515 9.95053C14.5938 9.88107 14.4151 9.87625 14.2539 9.93711C14.0926 9.99798 13.9617 10.1197 13.8893 10.276L13.5918 10.9511C13.0001 10.8554 12.3934 10.9321 11.8442 11.1722V6.18913ZM8.18169 19.9823C8.44787 19.3446 8.92187 18.8157 9.52666 18.4814C9.79066 18.3405 10.0831 18.2611 10.3821 18.2491L10.1847 18.7058C10.1446 18.7856 10.1213 18.8728 10.116 18.962C10.1107 19.0511 10.1237 19.1405 10.1541 19.2245C10.1844 19.3085 10.2316 19.3854 10.2927 19.4506C10.3537 19.5158 10.4274 19.5679 10.5093 19.6037C10.5911 19.6394 10.6794 19.6582 10.7688 19.6587C10.8581 19.6593 10.9466 19.6417 11.0289 19.6069C11.1112 19.5721 11.1855 19.521 11.2474 19.4566C11.3093 19.3922 11.3574 19.3158 11.3888 19.2322L11.5862 18.7782C11.8743 19.1793 12.0462 19.652 12.0831 20.1444C12.12 20.6368 12.0205 21.1299 11.7955 21.5694C11.6234 22.0323 11.327 22.4388 10.939 22.7443C10.5509 23.0497 10.0861 23.2422 9.59575 23.3007L9.79315 22.846C9.82994 22.7666 9.85053 22.6807 9.85372 22.5933C9.85691 22.5059 9.84265 22.4187 9.81176 22.3369C9.78086 22.255 9.73397 22.1802 9.6738 22.1167C9.61364 22.0532 9.54143 22.0023 9.46138 21.9671C9.38133 21.9318 9.29505 21.9129 9.20759 21.9114C9.12014 21.9098 9.03325 21.9258 8.95202 21.9582C8.8708 21.9907 8.79685 22.039 8.73452 22.1004C8.67219 22.1617 8.62272 22.2349 8.589 22.3156L8.39159 22.7716C8.19782 22.5427 8.05875 22.2727 7.98495 21.982C7.82381 21.3123 7.89312 20.6078 8.18169 19.9823ZM7.83031 24.0541L7.53355 24.7279C7.49876 24.807 7.4799 24.8922 7.47804 24.9786C7.47618 25.065 7.49135 25.1509 7.5227 25.2314C7.55404 25.312 7.60095 25.3855 7.66073 25.4479C7.72051 25.5103 7.792 25.5604 7.87111 25.5951C7.95397 25.632 8.04363 25.651 8.13431 25.6511C8.26218 25.6509 8.38721 25.6134 8.49414 25.5433C8.60106 25.4732 8.68525 25.3734 8.73639 25.2563L9.03644 24.5752C9.19924 24.6057 9.36434 24.6222 9.52995 24.6246C10.2522 24.5823 10.949 24.3421 11.5439 23.9304C12.1388 23.5186 12.609 22.9511 12.9029 22.29L16.3844 24.1679L9.21213 28.0265L2.03983 24.1679L6.60444 21.7089C6.6231 21.9171 6.65831 22.1235 6.70972 22.3261C6.87885 23.0115 7.27353 23.6201 7.83031 24.0541ZM1.66345 34.1874C1.55902 34.1315 1.47162 34.0484 1.41047 33.947C1.34932 33.8455 1.31669 33.7295 1.31602 33.611V25.2714L8.55412 29.1668V37.9012L1.66345 34.1874ZM9.87014 37.9012V29.1668L17.1082 25.2714V27.6856C16.8903 27.6538 16.6705 27.6373 16.4502 27.6363C14.542 27.6363 12.949 28.7687 12.5818 30.2683H11.8442C11.6697 30.2683 11.5023 30.3376 11.3789 30.461C11.2555 30.5844 11.1862 30.7518 11.1862 30.9263C11.1862 31.1008 11.2555 31.2682 11.3789 31.3916C11.5023 31.515 11.6697 31.5843 11.8442 31.5843H12.5818C12.949 33.0839 14.5433 34.2164 16.4502 34.2164C16.547 34.2164 16.6417 34.2098 16.7365 34.2045L9.87014 37.9012ZM16.4502 32.9003C15.9573 32.929 15.4661 32.8214 15.0303 32.5892C14.5946 32.3571 14.2312 32.0094 13.9801 31.5843H14.4762C14.6507 31.5843 14.8181 31.515 14.9415 31.3916C15.0649 31.2682 15.1342 31.1008 15.1342 30.9263C15.1342 30.7518 15.0649 30.5844 14.9415 30.461C14.8181 30.3376 14.6507 30.2683 14.4762 30.2683H13.9801C14.2312 29.8433 14.5946 29.4956 15.0303 29.2634C15.4661 29.0313 15.9573 28.9236 16.4502 28.9523C16.9431 28.9236 17.4344 29.0313 17.8701 29.2634C18.3059 29.4956 18.6692 29.8433 18.9204 30.2683H18.4243C18.2497 30.2683 18.0824 30.3376 17.959 30.461C17.8356 30.5844 17.7663 30.7518 17.7663 30.9263C17.7663 31.1008 17.8356 31.2682 17.959 31.3916C18.0824 31.515 18.2497 31.5843 18.4243 31.5843H18.9204C18.6692 32.0094 18.3059 32.3571 17.8701 32.5892C17.4344 32.8214 16.9431 32.929 16.4502 32.9003ZM20.5602 31.5843H21.0563C21.2308 31.5843 21.3982 31.515 21.5216 31.3916C21.645 31.2682 21.7143 31.1008 21.7143 30.9263C21.7143 30.7518 21.645 30.5844 21.5216 30.461C21.3982 30.3376 21.2308 30.2683 21.0563 30.2683H20.5602C20.8113 29.8433 21.1747 29.4956 21.6104 29.2634C22.0462 29.0313 22.5374 28.9236 23.0303 28.9523C23.5232 28.9236 24.0145 29.0313 24.4502 29.2634C24.8859 29.4956 25.2493 29.8433 25.5005 30.2683H25.0044C24.8298 30.2683 24.6625 30.3376 24.5391 30.461C24.4157 30.5844 24.3463 30.7518 24.3463 30.9263C24.3463 31.1008 24.4157 31.2682 24.5391 31.3916C24.6625 31.515 24.8298 31.5843 25.0044 31.5843H25.5005C25.2493 32.0094 24.8859 32.3571 24.4502 32.5892C24.0145 32.8214 23.5232 32.929 23.0303 32.9003C22.5374 32.929 22.0462 32.8214 21.6104 32.5892C21.1747 32.3571 20.8113 32.0094 20.5602 31.5843ZM22.7447 34.2045C22.8395 34.2098 22.9336 34.2164 23.0303 34.2164C24.9386 34.2164 26.5316 33.0839 26.8988 31.5843H27.6364C27.8109 31.5843 27.9783 31.515 28.1017 31.3916C28.2251 31.2682 28.2944 31.1008 28.2944 30.9263C28.2944 30.7518 28.2251 30.5844 28.1017 30.461C27.9783 30.3376 27.8109 30.2683 27.6364 30.2683H26.8988C26.5316 28.7687 24.9386 27.6363 23.0303 27.6363C22.8101 27.6373 22.5902 27.6538 22.3723 27.6856V25.2714L29.6104 29.1668V37.9012L22.7447 34.2045ZM37.8197 34.1894L30.9264 37.9012V29.1668L38.1645 25.2714V33.611C38.1645 33.7295 38.1324 33.8458 38.0717 33.9476C38.011 34.0494 37.924 34.133 37.8197 34.1894Z" fill="#2276FF"/>
</g>
<defs>
<clipPath id="clip0_294_1793">
<rect width="39.4805" height="39.4805" fill="white"/>
</clipPath>
</defs>
</svg>
