<svg width="40" height="40" viewBox="0 0 40 40" fill="none" xmlns="http://www.w3.org/2000/svg">
<g clip-path="url(#clip0_409_625)">
<path d="M1.32403 22.3761H7.24496V25.0076C7.24496 25.7342 7.83401 26.3233 8.56068 26.3233H9.87641C10.6031 26.3233 11.1921 25.7342 11.1921 25.0076V22.3761H12.5079V25.0076C12.5079 25.7342 13.0969 26.3233 13.8236 26.3233H15.1393C15.866 26.3233 16.4551 25.7342 16.4551 25.0076V22.3761H17.7708V25.6653C17.7708 26.0288 18.0653 26.3233 18.4288 26.3233C18.792 26.3233 19.0865 26.0288 19.0865 25.6653V22.3761H20.4022V25.6653C20.4022 26.0288 20.6968 26.3233 21.0602 26.3233C21.4234 26.3233 21.718 26.0288 21.718 25.6653V22.3761H23.034V25.6653C23.034 26.0288 23.3285 26.3233 23.6917 26.3233C24.0552 26.3233 24.3497 26.0288 24.3497 25.6653V22.3761H25.6654V25.0076C25.6654 25.7342 26.2545 26.3233 26.9812 26.3233H28.2969C29.0236 26.3233 29.6126 25.7342 29.6126 25.0076V22.3761H30.9284V25.6653C30.9284 26.0288 31.2229 26.3233 31.5861 26.3233C31.9496 26.3233 32.2441 26.0288 32.2441 25.6653V22.3761H38.165C38.8917 22.3761 39.4807 21.7871 39.4807 21.0604V18.4286C39.4807 17.7019 38.8917 17.1129 38.165 17.1129H32.9021V0.666137C32.9021 0.447803 32.794 0.243622 32.613 0.121355C32.4323 -0.00121326 32.2028 -0.0259077 32.0002 0.0551019L29.0317 1.24254L27.3462 0.118645C27.1772 0.00601437 26.9658 -0.0222938 26.7731 0.0418513L23.0542 1.28199L19.9894 0.0551019C19.8319 -0.00693513 19.6572 -0.00693513 19.4997 0.0551019L16.4195 1.28711L12.0308 0.0340214C11.8453 -0.0192823 11.6457 0.0117362 11.4849 0.118645L9.82913 1.22266L7.53888 0.0773871C7.335 -0.0247031 7.09287 -0.0135604 6.89893 0.106298C6.70499 0.226156 6.58694 0.438166 6.58694 0.666137V17.1129H1.32403C0.597352 17.1129 0.00830078 17.7019 0.00830078 18.4286V21.0604C0.00830078 21.7871 0.597352 22.3761 1.32403 22.3761ZM7.24496 18.4286H34.2178V21.0604H5.27121V18.4286H7.24496ZM14.4816 17.1129H10.5341V15.7972H14.4816V17.1129ZM9.87641 25.0076H8.56068V22.3761H9.87641V25.0076ZM15.1393 25.0076H13.8236V22.3761H15.1393V25.0076ZM28.2969 25.0076H26.9812V22.3761H28.2969V25.0076ZM38.165 21.0604H35.5336V18.4286H38.165V21.0604ZM7.90267 1.73071L9.58219 2.57393C9.7936 2.67782 10.0439 2.66186 10.2402 2.53267L11.9619 1.38197L16.2741 2.61398C16.4144 2.65464 16.5644 2.64711 16.6999 2.5932L19.7445 1.37474L22.7892 2.5932C22.9337 2.65072 23.0942 2.65554 23.2418 2.60615L26.8836 1.3898L28.5896 2.52665C28.7697 2.64771 28.9977 2.6724 29.1995 2.5923L31.5861 1.63795V17.1129H15.7973V15.7972C15.7973 15.0705 15.2083 14.4814 14.4816 14.4814H10.5341C9.80745 14.4814 9.2184 15.0705 9.2184 15.7972V17.1129H7.90267V1.73071ZM1.32403 18.4286H3.95548V21.0604H1.32403V18.4286Z" fill="#2276FF"/>
<path d="M9.87628 5.27142H18.4287C18.7918 5.27142 19.0864 4.97689 19.0864 4.6134C19.0864 4.25021 18.7918 3.95569 18.4287 3.95569H9.87628C9.51279 3.95569 9.21826 4.25021 9.21826 4.6134C9.21826 4.97689 9.51279 5.27142 9.87628 5.27142Z" fill="#2276FF"/>
<path d="M9.87628 7.90289H18.4287C18.7918 7.90289 19.0864 7.60836 19.0864 7.24487C19.0864 6.88168 18.7918 6.58716 18.4287 6.58716H9.87628C9.51279 6.58716 9.21826 6.88168 9.21826 7.24487C9.21826 7.60836 9.51279 7.90289 9.87628 7.90289Z" fill="#2276FF"/>
<path d="M21.0604 5.27142H29.6127C29.9759 5.27142 30.2705 4.97689 30.2705 4.6134C30.2705 4.25021 29.9759 3.95569 29.6127 3.95569H21.0604C20.6969 3.95569 20.4023 4.25021 20.4023 4.6134C20.4023 4.97689 20.6969 5.27142 21.0604 5.27142Z" fill="#2276FF"/>
<path d="M21.0604 7.90289H29.6127C29.9759 7.90289 30.2705 7.60836 30.2705 7.24487C30.2705 6.88168 29.9759 6.58716 29.6127 6.58716H21.0604C20.6969 6.58716 20.4023 6.88168 20.4023 7.24487C20.4023 7.60836 20.6969 7.90289 21.0604 7.90289Z" fill="#2276FF"/>
<path d="M9.87628 10.5344H29.6125C29.9757 10.5344 30.2702 10.2398 30.2702 9.87634C30.2702 9.51315 29.9757 9.21863 29.6125 9.21863H9.87628C9.51279 9.21863 9.21826 9.51315 9.21826 9.87634C9.21826 10.2398 9.51279 10.5344 9.87628 10.5344Z" fill="#2276FF"/>
<path d="M9.87628 13.1658H29.6125C29.9757 13.1658 30.2702 12.8713 30.2702 12.5081C30.2702 12.1446 29.9757 11.8501 29.6125 11.8501H9.87628C9.51279 11.8501 9.21826 12.1446 9.21826 12.5081C9.21826 12.8713 9.51279 13.1658 9.87628 13.1658Z" fill="#2276FF"/>
<path d="M29.6128 14.4814H17.771C17.4078 14.4814 17.1133 14.776 17.1133 15.1395C17.1133 15.5026 17.4078 15.7972 17.771 15.7972H29.6128C29.976 15.7972 30.2706 15.5026 30.2706 15.1395C30.2706 14.776 29.976 14.4814 29.6128 14.4814Z" fill="#2276FF"/>
<path d="M32.2445 28.9549C32.2445 28.2282 31.6555 27.6392 30.9288 27.6392H29.6131C28.8864 27.6392 28.2974 28.2282 28.2974 28.9549V31.5863C28.2974 32.313 28.8864 32.9021 29.6131 32.9021H30.9288C31.6555 32.9021 32.2445 32.313 32.2445 31.5863V28.9549ZM30.9288 31.5863H29.6131V28.9549H30.9288V31.5863Z" fill="#2276FF"/>
<path d="M19.0867 32.2444V28.2969C19.0867 27.9337 18.7922 27.6392 18.429 27.6392C18.0655 27.6392 17.771 27.9337 17.771 28.2969V32.2444C17.771 32.6075 18.0655 32.9021 18.429 32.9021C18.7922 32.9021 19.0867 32.6075 19.0867 32.2444Z" fill="#2276FF"/>
<path d="M16.4549 28.2969C16.4549 27.9337 16.1604 27.6392 15.7972 27.6392C15.4337 27.6392 15.1392 27.9337 15.1392 28.2969V32.2444C15.1392 32.6075 15.4337 32.9021 15.7972 32.9021C16.1604 32.9021 16.4549 32.6075 16.4549 32.2444V28.2969Z" fill="#2276FF"/>
<path d="M21.7181 28.2969C21.7181 27.9337 21.4235 27.6392 21.0604 27.6392C20.6969 27.6392 20.4023 27.9337 20.4023 28.2969V32.2444C20.4023 32.6075 20.6969 32.9021 21.0604 32.9021C21.4235 32.9021 21.7181 32.6075 21.7181 32.2444V28.2969Z" fill="#2276FF"/>
<path d="M8.56085 32.2444V28.2969C8.56085 27.9337 8.26632 27.6392 7.90283 27.6392C7.53964 27.6392 7.24512 27.9337 7.24512 28.2969V32.2444C7.24512 32.6075 7.53964 32.9021 7.90283 32.9021C8.26632 32.9021 8.56085 32.6075 8.56085 32.2444Z" fill="#2276FF"/>
<path d="M13.8236 28.9549C13.8236 28.2282 13.2346 27.6392 12.5079 27.6392H11.1922C10.4655 27.6392 9.87646 28.2282 9.87646 28.9549V31.5863C9.87646 32.313 10.4655 32.9021 11.1922 32.9021H12.5079C13.2346 32.9021 13.8236 32.313 13.8236 31.5863V28.9549ZM12.5079 31.5863H11.1922V28.9549H12.5079V31.5863Z" fill="#2276FF"/>
<path d="M25.6651 32.9021C26.3918 32.9021 26.9809 32.313 26.9809 31.5863V28.9549C26.9809 28.2282 26.3918 27.6392 25.6651 27.6392H24.3494C23.6227 27.6392 23.0337 28.2282 23.0337 28.9549V31.5863C23.0337 32.313 23.6227 32.9021 24.3494 32.9021H25.6651ZM24.3494 28.9549H25.6651V31.5863H24.3494V28.9549Z" fill="#2276FF"/>
<path d="M7.24512 38.1648C7.24512 38.8915 7.83417 39.4806 8.56085 39.4806H9.87657C10.6033 39.4806 11.1923 38.8915 11.1923 38.1648V35.5334C11.1923 34.8067 10.6033 34.2177 9.87657 34.2177H8.56085C7.83417 34.2177 7.24512 34.8067 7.24512 35.5334V38.1648ZM8.56085 35.5334H9.87657V38.1648H8.56085V35.5334Z" fill="#2276FF"/>
<path d="M23.0337 34.8757V38.8228C23.0337 39.186 23.3282 39.4806 23.6914 39.4806C24.0549 39.4806 24.3494 39.186 24.3494 38.8228V34.8757C24.3494 34.5122 24.0549 34.2177 23.6914 34.2177C23.3282 34.2177 23.0337 34.5122 23.0337 34.8757Z" fill="#2276FF"/>
<path d="M15.7972 34.2177C15.4337 34.2177 15.1392 34.5122 15.1392 34.8757V38.8228C15.1392 39.186 15.4337 39.4806 15.7972 39.4806C16.1604 39.4806 16.4549 39.186 16.4549 38.8228V34.8757C16.4549 34.5122 16.1604 34.2177 15.7972 34.2177Z" fill="#2276FF"/>
<path d="M12.5083 34.8757V38.8228C12.5083 39.186 12.8028 39.4806 13.1663 39.4806C13.5295 39.4806 13.824 39.186 13.824 38.8228V34.8757C13.824 34.5122 13.5295 34.2177 13.1663 34.2177C12.8028 34.2177 12.5083 34.5122 12.5083 34.8757Z" fill="#2276FF"/>
<path d="M30.9282 34.8757V38.8228C30.9282 39.186 31.2227 39.4806 31.5859 39.4806C31.9494 39.4806 32.244 39.186 32.244 38.8228V34.8757C32.244 34.5122 31.9494 34.2177 31.5859 34.2177C31.2227 34.2177 30.9282 34.5122 30.9282 34.8757Z" fill="#2276FF"/>
<path d="M26.9813 39.4806H28.297C29.0237 39.4806 29.6127 38.8915 29.6127 38.1648V35.5334C29.6127 34.8067 29.0237 34.2177 28.297 34.2177H26.9813C26.2546 34.2177 25.6655 34.8067 25.6655 35.5334V38.1648C25.6655 38.8915 26.2546 39.4806 26.9813 39.4806ZM26.9813 35.5334H28.297V38.1648H26.9813V35.5334Z" fill="#2276FF"/>
<path d="M17.771 38.1648C17.771 38.8915 18.36 39.4806 19.0867 39.4806H20.4025C21.1291 39.4806 21.7182 38.8915 21.7182 38.1648V35.5334C21.7182 34.8067 21.1291 34.2177 20.4025 34.2177H19.0867C18.36 34.2177 17.771 34.8067 17.771 35.5334V38.1648ZM19.0867 35.5334H20.4025V38.1648H19.0867V35.5334Z" fill="#2276FF"/>
<path d="M36.191 37.2347L35.3405 36.3843C35.0822 36.1349 34.672 36.1385 34.4181 36.3921C34.1646 36.646 34.1609 37.0564 34.4103 37.3145L36.3837 39.2879C36.6406 39.5448 37.0571 39.5448 37.314 39.2879L39.2877 37.3145C39.5371 37.0564 39.5335 36.646 39.2796 36.3921C39.026 36.1385 38.6156 36.1349 38.3575 36.3843L37.5067 37.2347V34.2178C37.5067 33.8546 37.2122 33.5601 36.849 33.5601C36.4855 33.5601 36.191 33.8546 36.191 34.2178V37.2347Z" fill="#2276FF"/>
<path d="M36.1914 31.5863C36.1914 31.9498 36.4859 32.2443 36.8494 32.2443C37.2126 32.2443 37.5071 31.9498 37.5071 31.5863V30.2706C37.5071 29.9074 37.2126 29.6125 36.8494 29.6125C36.4859 29.6125 36.1914 29.9074 36.1914 30.2706V31.5863Z" fill="#2276FF"/>
<path d="M36.8494 28.2967C37.2126 28.2967 37.5071 28.0022 37.5071 27.639V26.3233C37.5071 25.9598 37.2126 25.6653 36.8494 25.6653C36.4859 25.6653 36.1914 25.9598 36.1914 26.3233V27.639C36.1914 28.0022 36.4859 28.2967 36.8494 28.2967Z" fill="#2276FF"/>
<path d="M2.17469 39.2879C2.43157 39.5448 2.84776 39.5448 3.10464 39.2879L5.07838 37.3145C5.32774 37.0564 5.32412 36.646 5.07025 36.3921C4.81668 36.1385 4.40622 36.1349 4.14813 36.3843L3.29768 37.2347V34.2178C3.29768 33.8546 3.00315 33.5601 2.63967 33.5601C2.27648 33.5601 1.98165 33.8546 1.98165 34.2178V37.2347L1.1312 36.3843C0.965869 36.2132 0.721334 36.1445 0.491255 36.2048C0.261477 36.265 0.0816897 36.4448 0.0214595 36.6746C-0.0387706 36.9046 0.0298917 37.1492 0.200945 37.3145L2.17469 39.2879Z" fill="#2276FF"/>
<path d="M2.63946 29.6125C2.27627 29.6125 1.98145 29.9074 1.98145 30.2706V31.5863C1.98145 31.9498 2.27627 32.2443 2.63946 32.2443C3.00295 32.2443 3.29747 31.9498 3.29747 31.5863V30.2706C3.29747 29.9074 3.00295 29.6125 2.63946 29.6125Z" fill="#2276FF"/>
<path d="M3.29747 26.3233C3.29747 25.9598 3.00295 25.6653 2.63946 25.6653C2.27627 25.6653 1.98145 25.9598 1.98145 26.3233V27.639C1.98145 28.0022 2.27627 28.2967 2.63946 28.2967C3.00295 28.2967 3.29747 28.0022 3.29747 27.639V26.3233Z" fill="#2276FF"/>
</g>
<defs>
<clipPath id="clip0_409_625">
<rect width="39.4805" height="39.4805" fill="white"/>
</clipPath>
</defs>
</svg>
