<svg width="40" height="40" viewBox="0 0 40 40" fill="none" xmlns="http://www.w3.org/2000/svg">
<g clip-path="url(#clip0_294_1850)">
<path d="M3.28982 17.7662C2.89501 17.7662 2.63184 18.0294 2.63184 18.4242V20.3982C2.63184 20.7931 2.89501 21.0562 3.28982 21.0562C3.68462 21.0562 3.9478 20.7931 3.9478 20.3982V18.4242C3.9478 18.0294 3.68462 17.7662 3.28982 17.7662Z" fill="#2276FF"/>
<path d="M13.3582 33.6901L11.5816 32.8347C11.2525 32.7031 10.8577 32.8347 10.7262 33.1638C10.5946 33.4928 10.7262 33.8876 11.0552 34.0192L12.8318 34.8745C12.8976 34.9403 13.0292 34.9403 13.095 34.9403C13.2924 34.9403 13.5556 34.8087 13.6872 34.5455C13.8188 34.2165 13.6872 33.8217 13.3582 33.6901Z" fill="#2276FF"/>
<path d="M8.55409 31.4527L6.47034 30.4688C6.54166 30.1959 6.58007 29.9084 6.58007 29.6103C6.58007 28.9857 6.41328 28.4067 6.12149 27.9139L7.30382 27.1099C7.63285 26.9125 7.69863 26.5177 7.50123 26.1886C7.30382 25.8596 6.90902 25.7938 6.57999 25.9912L5.20881 26.9236C4.83991 26.6622 4.41311 26.4752 3.94798 26.3839V23.0302C3.94798 22.6354 3.6848 22.3722 3.28999 22.3722C2.89519 22.3722 2.63201 22.6354 2.63201 23.0302V26.3839C1.1144 26.6816 0 27.9939 0 29.6103C0 31.4527 1.44759 32.9004 3.29007 32.9004C4.36407 32.9004 5.30327 32.4079 5.90041 31.6326L8.02774 32.6372C8.09351 32.703 8.22514 32.703 8.29091 32.703C8.55409 32.703 8.81735 32.5714 8.88312 32.3082C9.01475 31.9792 8.88312 31.5843 8.55409 31.4527ZM3.29007 31.5843C2.17143 31.5843 1.31604 30.729 1.31604 29.6103C1.31604 28.4917 2.17143 27.6363 3.29007 27.6363C4.40871 27.6363 5.2641 28.4917 5.2641 29.6103C5.2641 30.729 4.40864 31.5843 3.29007 31.5843Z" fill="#2276FF"/>
<path d="M36.1902 20.3982C35.7954 20.3982 35.5322 20.6614 35.5322 21.0562V23.0302C35.5322 23.425 35.7954 23.6882 36.1902 23.6882C36.585 23.6882 36.8482 23.425 36.8482 23.0302V21.0562C36.8483 20.6614 36.585 20.3982 36.1902 20.3982Z" fill="#2276FF"/>
<path d="M36.8482 16.4501C36.8482 16.0553 36.585 15.7921 36.1902 15.7921C35.7954 15.7921 35.5322 16.0553 35.5322 16.4501V18.4241C35.5322 18.8189 35.7954 19.0821 36.1902 19.0821C36.585 19.0821 36.8482 18.8189 36.8482 18.4241V16.4501Z" fill="#2276FF"/>
<path d="M2.63201 12.4386V14.4763C2.63201 14.8711 2.89519 15.1342 3.28999 15.1342C3.6848 15.1342 3.94798 14.8711 3.94798 14.4763V12.4386C4.73928 12.2834 5.42032 11.852 5.89155 11.2457L7.23805 12.1075C7.30382 12.2391 7.43545 12.2391 7.56708 12.2391C7.83026 12.2391 8.02766 12.1075 8.15929 11.9101C8.35669 11.5811 8.29091 11.1863 7.96188 10.9889L6.47882 10.0396C6.54498 9.776 6.58006 9.49894 6.58006 9.21217C6.58006 8.70247 6.46879 8.22315 6.26954 7.79619L8.61994 6.84333C8.94897 6.71171 9.08052 6.3169 8.94897 5.98795C8.81742 5.65899 8.42254 5.52737 8.09359 5.65892L5.65898 6.64593C5.59544 6.67138 5.53938 6.70677 5.49103 6.74949C4.91163 6.23308 4.14337 5.92217 3.29007 5.92217C1.44759 5.92217 0 7.36977 0 9.21224C0 10.8287 1.1144 12.141 2.63201 12.4386ZM3.29007 7.23822C4.40871 7.23822 5.2641 8.0936 5.2641 9.21224C5.2641 10.3309 4.40871 11.1863 3.29007 11.1863C2.17143 11.1863 1.31604 10.3309 1.31604 9.21224C1.31604 8.0936 2.17143 7.23822 3.29007 7.23822Z" fill="#2276FF"/>
<path d="M36.8483 26.3841V25.0044C36.8483 24.6096 36.5851 24.3464 36.1903 24.3464C35.7955 24.3464 35.5324 24.6096 35.5324 25.0044V26.3841C34.7834 26.531 34.1331 26.9252 33.666 27.481L33.0977 26.9127C32.8346 26.6495 32.4398 26.6495 32.1765 26.9127C31.9133 27.1758 31.9133 27.5707 32.1765 27.8339L33.0285 28.6859C32.9455 28.9784 32.9003 29.2882 32.9003 29.6105C32.9003 29.9086 32.9387 30.196 33.0101 30.469L30.9263 31.453C30.5973 31.5846 30.4657 31.9794 30.5973 32.3084C30.7289 32.5716 30.9263 32.7032 31.1895 32.7032C31.2553 32.7032 31.3869 32.7032 31.4527 32.6374L33.58 31.6328C34.1771 32.4081 35.1163 32.9006 36.1903 32.9006C38.0327 32.9005 39.4803 31.4529 39.4803 29.6105C39.4803 27.994 38.3659 26.6817 36.8483 26.3841ZM36.1903 31.5845C35.0716 31.5845 34.2162 30.7291 34.2162 29.6105C34.2162 28.4918 35.0716 27.6364 36.1903 27.6364C37.3089 27.6364 38.1643 28.4918 38.1643 29.6105C38.1643 30.7291 37.3089 31.5845 36.1903 31.5845Z" fill="#2276FF"/>
<path d="M12.6331 26.9784H27.2409C28.4064 26.9784 29.4597 26.5981 30.2915 25.9493L30.7942 26.452C30.9258 26.5836 31.0573 26.6494 31.2547 26.6494C31.3864 26.6494 31.5838 26.5836 31.7153 26.452C31.9785 26.1888 31.9785 25.794 31.7153 25.5307L31.2 25.0154C31.8389 24.1505 32.2034 23.0561 32.1759 21.8459C32.1759 19.4112 30.7283 17.3714 28.6227 16.7134C28.5505 15.8909 28.3454 15.1034 28.0291 14.3749L29.8729 13.3575C30.202 13.1601 30.3335 12.7653 30.1361 12.4363C29.9387 12.1073 29.5439 11.9757 29.2149 12.1731L27.3797 13.1857C26.0743 11.2351 23.8848 9.93591 21.3846 9.93591C19.1474 9.93591 16.9101 11.0546 15.5283 12.8312C15.3945 12.781 15.2521 12.7395 15.1056 12.7053C14.7044 12.5739 14.2721 12.5022 13.8174 12.5022C12.9416 12.5022 12.1571 12.7552 11.526 13.1924L10.1984 12.3706C9.86939 12.1732 9.47459 12.239 9.27718 12.568C9.07978 12.897 9.14556 13.2918 9.47459 13.4892L10.5679 14.166C10.1644 14.7716 9.93517 15.5084 9.93517 16.3187C9.93517 16.3267 9.93594 16.3344 9.93617 16.3423C9.93602 16.3564 9.93517 16.3703 9.93517 16.3844C8.29017 17.3714 7.2373 19.2138 7.2373 21.2537C7.2373 22.6333 7.7019 23.8998 8.47192 24.889C8.41424 25.0701 8.44115 25.2781 8.55327 25.465C8.6849 25.5967 8.8823 25.7282 9.0797 25.7282C9.14294 25.7282 9.20617 25.7281 9.2694 25.7207C10.1946 26.5068 11.3652 26.9784 12.6331 26.9784ZM10.8565 17.3714L11.2513 17.174V16.7792C11.2513 16.7135 11.2513 16.7135 11.2513 16.5818V16.5161V16.3187C11.2513 14.8711 12.3041 13.8182 13.8175 13.8182C15.2651 13.8182 16.4495 15.0026 16.4495 16.4502C16.4495 16.845 16.7127 17.1082 17.1075 17.1082C17.5023 17.1082 17.7655 16.845 17.7655 16.4502C17.7655 15.2697 17.2888 14.2361 16.5101 13.5227C17.6667 12.0264 19.5537 11.1203 21.3845 11.1203C24.6746 11.1203 27.3066 13.8182 27.3724 17.1082V17.6346L27.8988 17.7662C29.6754 18.0953 30.9256 19.8061 30.9256 21.7801C30.9256 22.8152 30.587 23.7231 30.0152 24.4004C29.9407 24.4332 29.8701 24.4807 29.807 24.5437C29.7397 24.611 29.6899 24.687 29.657 24.7671C29.0198 25.3319 28.1834 25.6624 27.2408 25.6624H12.6331C10.3959 25.6624 8.55343 23.6883 8.55343 21.2537C8.55343 19.5429 9.40889 18.0294 10.8565 17.3714Z" fill="#2276FF"/>
<path d="M23.7538 34.8085L22.89 35.2231C22.4853 33.8658 21.2444 32.9003 19.7399 32.9003C18.2354 32.9003 16.9946 33.8658 16.5899 35.2231L15.7261 34.8085C15.3971 34.6769 15.0023 34.8085 14.8707 35.1376C14.7392 35.4666 14.8707 35.8614 15.1998 35.9929L16.4759 36.6055C16.6747 38.2455 18.0385 39.4804 19.7399 39.4804C21.4414 39.4804 22.8052 38.2455 23.004 36.6055L24.2802 35.9929C24.6092 35.8613 24.7408 35.4665 24.6092 35.1376C24.4777 34.8086 24.0828 34.677 23.7538 34.8085ZM19.7399 38.1644C18.6213 38.1644 17.7659 37.309 17.7659 36.1903C17.7659 35.0717 18.6213 34.2163 19.7399 34.2163C20.8586 34.2163 21.714 35.0717 21.714 36.1903C21.714 37.309 20.8586 38.1644 19.7399 38.1644Z" fill="#2276FF"/>
<path d="M27.9002 32.8346L26.1236 33.69C25.7945 33.8216 25.663 34.2164 25.7945 34.5453C25.9262 34.8085 26.1236 34.9402 26.3868 34.9402C26.5184 34.9402 26.5842 34.9402 26.7158 34.8744L28.4266 34.019C28.7557 33.8874 28.8872 33.4926 28.7557 33.1636C28.6241 32.8347 28.2292 32.703 27.9002 32.8346Z" fill="#2276FF"/>
<path d="M25.9908 4.86925L27.8332 5.59309C27.899 5.65887 28.0306 5.65887 28.0964 5.65887C28.3596 5.65887 28.557 5.46146 28.6886 5.26406C28.886 4.93503 28.6886 4.54022 28.3596 4.40867L26.5172 3.68484C26.1881 3.48744 25.7933 3.68484 25.6618 4.01387C25.5301 4.34282 25.6618 4.67185 25.9908 4.86925Z" fill="#2276FF"/>
<path d="M30.8608 6.84325L33.2112 7.79611C33.0119 8.22307 32.9007 8.70239 32.9007 9.21209C32.9007 9.50757 32.9383 9.79273 33.0085 10.0635L31.5189 10.9229C31.1899 11.1203 31.0583 11.5151 31.2557 11.8442C31.3874 12.0416 31.5848 12.1732 31.8479 12.1732C31.9137 12.1732 32.0453 12.1074 32.177 12.1074L33.6145 11.278C34.0847 11.8673 34.7556 12.2862 35.5328 12.4385V14.4762C35.5328 14.871 35.796 15.1342 36.1908 15.1342C36.5856 15.1342 36.8488 14.871 36.8488 14.4762V12.4385C38.3664 12.1408 39.4808 10.8286 39.4808 9.21209C39.4808 7.36969 38.0332 5.92202 36.1907 5.92202C35.3389 5.92202 34.5719 6.23192 33.9928 6.74679C33.9417 6.70523 33.8842 6.67076 33.8219 6.64585L31.3873 5.65884C31.0582 5.46143 30.6634 5.65884 30.5319 5.98787C30.3345 6.31682 30.5319 6.71163 30.8608 6.84325ZM36.1907 7.23806C37.3094 7.23806 38.1647 8.09345 38.1647 9.21209C38.1647 10.3307 37.3094 11.1861 36.1907 11.1861C35.0721 11.1861 34.2167 10.3307 34.2167 9.21209C34.2167 8.09345 35.0721 7.23806 36.1907 7.23806Z" fill="#2276FF"/>
<path d="M11.3828 5.65882C11.4486 5.65882 11.5803 5.59305 11.646 5.59305L13.4884 4.86921C13.8175 4.73758 13.949 4.34278 13.8175 4.01383C13.6859 3.68487 13.291 3.55325 12.9621 3.6848L11.1197 4.40863C10.7906 4.54026 10.6591 4.93506 10.7906 5.26402C10.8564 5.5272 11.1196 5.65882 11.3828 5.65882Z" fill="#2276FF"/>
<path d="M15.6602 3.88228C15.726 3.88228 15.8576 3.88228 15.9234 3.8165L16.4639 3.59535C16.6138 5.28978 18.0006 6.58006 19.7399 6.58006C21.4792 6.58006 22.8659 5.28978 23.0158 3.59535L23.5564 3.81643C23.6222 3.8822 23.7538 3.8822 23.8196 3.8822C24.0827 3.8822 24.346 3.75057 24.4118 3.4874C24.6092 3.15837 24.4118 2.76356 24.0827 2.63201L22.8203 2.11552C22.3559 0.868341 21.1666 0 19.7399 0C18.3132 0 17.1238 0.868341 16.6595 2.1156L15.397 2.63209C15.068 2.76372 14.9364 3.15852 15.068 3.48747C15.1338 3.75065 15.397 3.88228 15.6602 3.88228ZM19.7399 1.31604C20.8585 1.31604 21.7139 2.17143 21.7139 3.29007C21.7139 4.40871 20.8585 5.2641 19.7399 5.2641C18.6212 5.2641 17.7658 4.40871 17.7658 3.29007C17.7658 2.17143 18.6212 1.31604 19.7399 1.31604Z" fill="#2276FF"/>
</g>
<defs>
<clipPath id="clip0_294_1850">
<rect width="39.4805" height="39.4805" fill="white"/>
</clipPath>
</defs>
</svg>
